<?xml version="1.0" encoding="utf-8"?>
<!DOCTYPE svg PUBLIC "-//W3C//DTD SVG 1.0//EN" "http://www.w3.org/TR/2001/REC-SVG-20010904/DTD/svg10.dtd">
<svg version="1.0" xmlns="http://www.w3.org/2000/svg" width="500px" height="500px" viewBox="0 0 500 500" preserveAspectRatio="xMidYMid meet">
 <g fill="#ffffff">
  <path d="M202.7 403.9 c-27.3 -3.5 -39.8 -17.7 -39.9 -45.4 0 -6 0.5 -13.2 1.1 -15.8 4.8 -20.4 19.3 -29.9 48 -31.6 l11.4 -0.6 -25.3 -24.3 c-25.4 -24.3 -29.9 -29.5 -34.9 -40.1 l-2.6 -5.6 -0.3 -64 c-0.2 -45.3 0 -65.1 0.8 -67.8 0.6 -2.2 3 -5.9 5.2 -8.3 6.9 -7.5 6.4 -7.4 68.4 -7.4 33.4 0 57.3 0.4 62.1 1.1 25.8 3.5 37.7 14.8 40.3 38.1 1.9 16.1 -2 32 -9.8 40.9 -3.8 4.3 -12.6 9.2 -20.7 11.3 -3.3 0.9 -11.1 1.9 -17.2 2.3 -6.2 0.3 -11.3 0.9 -11.3 1.4 0 0.4 6.3 6.7 14.1 14.1 7.7 7.3 17.4 17.1 21.6 21.8 9.6 10.7 19.8 26.1 23.4 35.4 l2.8 7.1 0.1 60.8 c0 58.2 -0.1 60.9 -1.9 64.6 -2.3 4.4 -8.1 9.8 -12.7 11.7 -2.7 1.1 -13.9 1.4 -59.6 1.3 -31 -0.1 -59.3 -0.5 -63.1 -1z m100.8 -24.4 c2.2 -1.1 5 -3.5 6.2 -5.4 2.2 -3.2 2.3 -4.4 2.3 -21.7 l0 -18.4 -51.7 -0.2 c-28.5 -0.1 -53.4 -0.1 -55.3 0 -4.2 0.2 -7.8 2.7 -10.4 7.2 -2.5 4.2 -3.5 23.6 -1.7 29.3 1.4 4.1 7.2 9.7 10.1 9.7 1 0 2.2 0.5 2.5 1.1 0.5 0.7 15.4 0.9 47.3 0.7 44.4 -0.3 46.9 -0.4 50.7 -2.3z m8.3 -90.7 l-0.3 -22.3 -3.7 -7.1 c-2 -3.8 -4.3 -7.6 -5.2 -8.3 -0.9 -0.8 -1.6 -1.9 -1.6 -2.5 0 -0.6 -13.9 -14.7 -31 -31.4 l-31 -30.2 -25.5 0 -25.5 0 0 21 c0 32 -0.2 31.7 43 73.7 l30.1 29.3 25.5 0 25.5 0 -0.3 -22.2z m-12.3 -126.6 c2.7 -1.7 3.8 -3.3 7.5 -11.4 0.9 -2 1.1 -5.7 0.7 -12.9 -0.9 -13.8 -1.9 -15.4 -13.9 -21.1 -2.6 -1.2 -88.5 -1 -89.3 0.2 -0.3 0.5 -2.1 1 -4 1 -2.2 0 -4.5 0.9 -6.5 2.6 -5.6 4.7 -6 6.6 -6 25.9 l0 17.5 54.3 0 c50.8 0 54.4 -0.1 57.2 -1.8z"/>
 </g>
</svg>